<svg id="Layer_1" data-name="Layer 1" xmlns="http://www.w3.org/2000/svg" viewBox="0 0 290 97.51"><defs><style>.cls-1{fill:#d1d3d4;}.cls-2{font-size:48.99px;fill:#231f20;font-family:ScoutCond;letter-spacing:3px;}.cls-3{font-weight:700;}</style></defs><title>logo</title><g id="VmhNRu.tif"><path class="cls-1" d="M310.33,255.24h14.86c0.27,0,.55.1,0.82,0.12,0.84,0.06,1.69.07,2.53,0.16,4.05,0.46,8.11.89,12.16,1.42a160.7,160.7,0,0,1,16.87,3.15,70,70,0,0,1,13.75,4.56c2,1,4,2,6,2.78A34.26,34.26,0,0,0,390,269.37c4.91,0,9.82,0,14.73-.11a30.54,30.54,0,0,0,14.22-3.69,45.66,45.66,0,0,1,7.36-3.15,135.72,135.72,0,0,1,23.19-5.2c5-.73,10.06-1.19,15.09-1.76,0.75-.09,1.51-0.15,2.27-0.22h14.86c0.34,0,.68.08,1,0.08,3.62,0.08,7.24.13,10.86,0.25q6.51,0.21,13,.53c2.81,0.13,5.62.32,8.43,0.53q4.63,0.35,9.25.8,4.2,0.41,8.39.92c2.79,0.34,5.57.75,8.36,1.12v1.69a6.66,6.66,0,0,0-.11.7c-0.21,4.63-.42,9.25-0.61,13.88a0.72,0.72,0,0,1-.56.77,12.48,12.48,0,0,0-8.15,9.29c-0.63,2.74-1.07,5.52-1.57,8.28-1.25,6.88-2.7,13.71-4.63,20.44a85.89,85.89,0,0,1-6.64,17.16,33,33,0,0,1-7,9.38,45.18,45.18,0,0,1-27.35,11.46c-0.86.06-1.72,0.16-2.58,0.24h-6.65a3.85,3.85,0,0,0-.53-0.09,106.14,106.14,0,0,1-17.1-2.08,70.51,70.51,0,0,1-19.39-6.73,36.36,36.36,0,0,1-10-7.58,90,90,0,0,1-11.38-16.08,88.32,88.32,0,0,1-10-26.42,11.26,11.26,0,0,0-2.92-6c-3-3-6.77-3.65-10.77-2.74s-6.52,3.77-7.56,7.78c-0.6,2.29-1,4.63-1.66,6.91a96,96,0,0,1-16.54,32.47,40.44,40.44,0,0,1-11,10.24,63.72,63.72,0,0,1-17.51,7.14,100,100,0,0,1-18.91,2.93c-1,.06-2,0.16-3.06.24h-6.65l-0.83-.12c-2.28-.25-4.57-0.4-6.83-0.78a44.09,44.09,0,0,1-18.3-7.65A33.69,33.69,0,0,1,274.58,334a75.5,75.5,0,0,1-7.13-16.69,227.32,227.32,0,0,1-6.54-29.38,16.59,16.59,0,0,0-2.49-6.73,12.93,12.93,0,0,0-6.2-4.7,0.57,0.57,0,0,1-.5-0.56q-0.21-5.46-.48-10.92c-0.06-1.24-.16-2.48-0.24-3.72v-1.81h0.12c4.5-.57,9-1.2,13.51-1.71q5.57-.63,11.17-1c4.27-.32,8.55-0.58,12.83-0.76,6.23-.25,12.47-0.41,18.7-0.61Zm160.41,8.38v0.15c-3,0-6,.06-8.94,0a84.74,84.74,0,0,0-19.39,1.51,41.22,41.22,0,0,0-12.48,4.48,20.08,20.08,0,0,0-8.55,8.84,29.83,29.83,0,0,0-2.3,9.51,49.63,49.63,0,0,0,.45,13.71,57.43,57.43,0,0,0,7,19.4,51.24,51.24,0,0,0,11.11,13.5,31.62,31.62,0,0,0,9.17,5.12,81.23,81.23,0,0,0,25,5.45,61.09,61.09,0,0,0,16.87-1.1c7.7-1.68,14.24-5.2,19.24-11.52A57.34,57.34,0,0,0,520,304.35c0.46-3.36.76-6.75,1.12-10.13a34.8,34.8,0,0,0-.14-9.27,20.17,20.17,0,0,0-6.12-11.76,31,31,0,0,0-10.92-6.35A54.27,54.27,0,0,0,487.34,264C481.81,263.74,476.27,263.73,470.74,263.63Zm-149.51.19h0c-4.13,0-8.25,0-12.38,0a79.55,79.55,0,0,0-14.64,1.34,37.31,37.31,0,0,0-14.45,5.91A20.27,20.27,0,0,0,270.83,287a47.59,47.59,0,0,0,.12,7.35c0.36,4,.81,8.08,1.44,12.09a55,55,0,0,0,11.57,26,30.22,30.22,0,0,0,10,8.45,45.53,45.53,0,0,0,18.86,4.45,74.75,74.75,0,0,0,13.55-.69A83.51,83.51,0,0,0,344.8,340a33.79,33.79,0,0,0,12.75-8.24,57,57,0,0,0,15.59-36.29,47.51,47.51,0,0,0-1-12,19.11,19.11,0,0,0-4.65-9.45,25.48,25.48,0,0,0-8.89-6,59.27,59.27,0,0,0-21.47-4.21C331.87,263.68,326.55,263.82,321.23,263.82Zm-62.86,6.81H271v-2.91H258.37v2.91ZM521,267.7v2.93h12.64V267.7H521Z" transform="translate(-251 -255.24)"/><path class="cls-1" d="M258.37,270.63v-2.91H271v2.91H258.37Z" transform="translate(-251 -255.24)"/><path class="cls-1" d="M521,267.7h12.64v2.93H521V267.7Z" transform="translate(-251 -255.24)"/></g><text class="cls-2" transform="translate(5.21 64.79)">SHIT<tspan class="cls-3" x="70.84" y="0">HI</tspan><tspan class="cls-3" x="106.99" y="0">P</tspan><tspan class="cls-3" x="129.24" y="0">S</tspan><tspan class="cls-3" x="151.28" y="0">TE</tspan><tspan class="cls-3" x="192.38" y="0">R</tspan><tspan class="cls-3" x="214.53" y="0">S</tspan><tspan x="237.06" y="0">DO</tspan></text></svg>